<svg width="960" height="540" viewBox="0 0 960 540" fill="none" xmlns="http://www.w3.org/2000/svg">
<g clip-path="url(#clip0_273_14)">
<path d="M0.427189 539.616L87.4271 539.514L175.427 539.41L262.427 539.308L349.427 539.206L436.427 539.104L524.427 539L611.427 538.898L698.427 538.796L785.427 538.693L873.427 538.59L960.426 538.488L960.426 288.499L873.045 214.358L785.427 163.499L577.499 163.498L399.501 152.999L349.427 152.999L302.5 188.999L262.155 261.809L216 188.999L175.427 152.999L87.1006 261.809L0.426947 152.998L0.427189 539.616Z" fill="#E9E9E9"/>
<path d="M960 250L873 191L785 137L698 159L611 99L524 159L436 132L349 105L262 180L175 99L87.0001 223L5.72205e-05 126V171L87.0001 296L175 171L262 269L349 155L436 198L524 204L611 188L698 231L785 188L873 279L960 317V250Z" fill="#E9E9E9"/>
</g>
<defs>
<clipPath id="clip0_273_14">
<rect width="960" height="540" fill="white"/>
</clipPath>
</defs>
</svg>
