<svg width="960" height="540" viewBox="0 0 960 540" fill="none" xmlns="http://www.w3.org/2000/svg">
<g clip-path="url(#clip0_273_16)">
<path d="M0 540H87H175H262H349H436H524H611H698H785H873H960L960 345.6L873 299.16L772.5 259.5L698 299.16L611 208L491.5 238L425.5 227.5L349 208L262 311L175 238L87 333.72L0 238V540Z" fill="#D3D3D3"/>
<path d="M960 317L873 279L785 188L698 231L611 188L524 204L436 198L349 155L262 269L175 171L87.0001 296L5.72205e-05 171V265L87.0001 362L175 276L262 330L349 249L436 271L524 303L611 227L698 319L785 298L873 330L960 362V317Z" fill="#D3D3D3"/>
</g>
<defs>
<clipPath id="clip0_273_16">
<rect width="960" height="540" fill="white"/>
</clipPath>
</defs>
</svg>
