<svg width="960" height="540" viewBox="0 0 960 540" fill="none" xmlns="http://www.w3.org/2000/svg">
<g clip-path="url(#clip0_273_20)">
<path d="M960 442L873 469L785 334L698 431L611 350L524 377L436 366L349 301L262 453L175 361L87.0001 415L5.72205e-05 345V540H87.0001L175 540H262H349H436H524H611L698 540H785H873H960V442Z" fill="#BEBEBE"/>
<path d="M960.014 355L873.014 323L785.014 291L698.014 312L611.014 220L524.014 296L436.014 264L349.014 242L262.014 323L175.014 269L87.0137 355L0.0137291 258V347L87.0137 417L175.014 363L262.014 455L349.014 303L436.014 368L524.014 379L611.014 352L698.014 433L785.014 336L873.014 471L960.014 444V355Z" fill="#BEBEBE"/>
</g>
<defs>
<clipPath id="clip0_273_20">
<rect width="960" height="540" fill="white"/>
</clipPath>
</defs>
</svg>
