<svg width="30" height="30" viewBox="0 0 30 30" fill="none" xmlns="http://www.w3.org/2000/svg">
<path d="M0.943617 0.09147C0.427851 0.27321 0 0.88878 0 1.45745C0 1.5747 0.0410268 1.80334 0.0937756 1.96163C0.18169 2.22545 0.715039 2.77653 6.55843 8.62738L12.9234 15L6.58187 21.3492C3.10046 24.8374 0.199273 27.7804 0.146524 27.8918C-0.117219 28.4194 0.00586097 29.1405 0.439573 29.5685C0.84398 29.9789 1.39491 30.102 1.96929 29.9144C2.23303 29.8265 2.78396 29.293 8.62735 23.448L15.0041 17.0812L21.3808 23.448C27.2242 29.293 27.7752 29.8265 28.0389 29.9144C28.6133 30.102 29.1642 29.9789 29.5686 29.5685C29.9789 29.164 30.102 28.6129 29.9144 28.0384C29.8265 27.7746 29.2932 27.2235 23.4498 21.3726L17.0847 15L23.4498 8.62152C29.2932 2.77653 29.8265 2.22545 29.9144 1.96163C30.102 1.3871 29.9789 0.836017 29.5686 0.431499C29.1642 0.0211191 28.6133 -0.101995 28.0389 0.0856074C27.7752 0.173546 27.2242 0.70704 21.375 6.55203L15.0041 12.9188L8.62735 6.55203C2.78396 0.70704 2.23303 0.173546 1.96929 0.0856074C1.61177 -0.0316441 1.28355 -0.0257815 0.943617 0.09147Z" fill="white"/>
</svg>
