<svg width="15" height="15" viewBox="0 0 15 15" fill="none" xmlns="http://www.w3.org/2000/svg">
<path d="M0.489607 0.119745C0.163202 0.293253 0 0.620991 0 1.0644C0 1.3343 0.353605 1.73915 3.29124 4.87194C5.12273 6.83837 6.70036 8.4385 6.86356 8.51561C7.2081 8.67948 7.7793 8.68912 8.13291 8.55417C8.50465 8.39994 14.8514 1.64276 14.9602 1.26683C15.1415 0.688466 14.6791 0.0715486 14.0626 0.0715486C13.7634 0.0715486 13.5639 0.264336 10.6353 3.3682L7.52543 6.6745L4.41553 3.37784C1.10615 -0.150156 1.06081 -0.188714 0.489607 0.119745Z" fill="black"/>
<path d="M0.31683 6.56858C0.0629601 6.83848 -0.0458413 7.20478 0.0357598 7.51324C0.0629601 7.63855 1.58618 9.32543 3.41767 11.2726C7.08972 15.1669 7.07159 15.1476 7.9148 14.9163C8.25027 14.8199 8.70361 14.3668 11.6322 11.2726C14.9053 7.79278 14.9597 7.7253 14.9597 7.34937C14.9597 7.1373 14.8962 6.8674 14.8237 6.76137C14.6424 6.48183 14.1981 6.29868 13.8989 6.38544C13.7266 6.42399 12.6114 7.54216 10.5804 9.69173L7.52493 12.9402L4.41502 9.63389L1.30511 6.33724H0.924305C0.634168 6.33724 0.480032 6.39508 0.31683 6.56858Z" fill="black"/>
</svg>
