<svg width="280" height="167" viewBox="0 0 280 167" fill="none" xmlns="http://www.w3.org/2000/svg">
<rect width="280" height="167" rx="18" fill="#D9D9D9"/>
<g clip-path="url(#clip0_47_388)">
<path d="M280 0H0V167H280V0Z" fill="#333333"/>
<path d="M0 65.2537H46.6667L93.3333 58.7593L140 57.5222L186.667 64.6352L233.333 47.0074L280 38.3481V167.309H233.333H186.667H140H93.3333H46.6667H0V65.2537Z" fill="#ACACAC"/>
<path d="M0 56.5942L46.6667 52.5739L93.3333 49.7905L140 76.6961L186.667 65.2535L233.333 59.3776L280 53.5016V167.309H233.333H186.667H140H93.3333H46.6667H0V56.5942Z" fill="#B2B2B2"/>
<path d="M0 52.2649L46.6667 68.0371L93.3333 82.2631L140 62.4705L186.667 73.2945L233.333 46.6982L280 80.4075V167.309H233.333H186.667H140H93.3333H46.6667H0V52.2649Z" fill="#B8B8B8"/>
<path d="M0 90.3037L46.6667 58.7593L93.3333 79.7889L140 86.5926L186.667 79.1704L233.333 85.6648L280 77.0056V167.309H233.333H186.667H140H93.3333H46.6667H0V90.3037Z" fill="#BEBEBE"/>
<path d="M0 74.2222L46.6667 102.365L93.3333 98.963L140 100.819L186.667 73.2944L233.333 96.7981L280 101.437V167.309H233.333H186.667H140H93.3333H46.6667H0V74.2222Z" fill="#C4C4C4"/>
<path d="M0 106.385L46.6667 94.3242L93.3333 110.406H140L186.667 87.5205L233.333 107.313L280 96.489V167.309H233.333H186.667H140H93.3333H46.6667H0V106.385Z" fill="#CACACA"/>
<path d="M0 94.6333L46.6667 97.4166L93.3333 96.1796L140 104.53L186.667 93.7055L233.333 92.1592L280 104.53V167.309H233.333H186.667H140H93.3333H46.6667H0V94.6333Z" fill="#D0D0D0"/>
<path d="M0 109.478L46.6667 109.787L93.3333 111.024L140 103.292L186.667 123.704L233.333 105.148L280 103.292V167.309H233.333H186.667H140H93.3333H46.6667H0V109.478Z" fill="#D6D6D6"/>
<path d="M0 119.993L46.6667 130.817L93.3333 121.539L140 120.92L186.667 127.106L233.333 122.467L280 124.632V167.309H233.333H186.667H140H93.3333H46.6667H0V119.993Z" fill="#DDDDDD"/>
<path d="M0 135.455L46.6667 131.126L93.3333 143.496L140 134.218L186.667 135.455L233.333 130.507L280 138.857V167.309H233.333H186.667H140H93.3333H46.6667H0V135.455Z" fill="#E3E3E3"/>
<path d="M0 146.898L46.6667 139.785L93.3333 141.95L140 145.352L186.667 142.259L233.333 143.496L280 146.589V167.309H233.333H186.667H140H93.3333H46.6667H0V146.898Z" fill="#EAEAEA"/>
<path d="M0 148.444L46.6667 150.3L93.3333 157.722L140 149.991L186.667 160.196L233.333 151.537L280 151.228V167.309H233.333H186.667H140H93.3333H46.6667H0V148.444Z" fill="#F0F0F0"/>
<path d="M36.825 74.55C38.6583 74.55 40.2667 74.9083 41.65 75.625C43.05 76.3417 44.125 77.3667 44.875 78.7C45.6417 80.0167 46.025 81.55 46.025 83.3C46.025 85.05 45.6417 86.5833 44.875 87.9C44.125 89.2 43.05 90.2083 41.65 90.925C40.2667 91.6417 38.6583 92 36.825 92H30.725V74.55H36.825ZM36.7 89.025C38.5333 89.025 39.95 88.525 40.95 87.525C41.95 86.525 42.45 85.1167 42.45 83.3C42.45 81.4833 41.95 80.0667 40.95 79.05C39.95 78.0167 38.5333 77.5 36.7 77.5H34.225V89.025H36.7ZM64.3199 74.55L57.9199 92H53.6699L47.2699 74.55H51.0199L55.8199 88.425L60.5949 74.55H64.3199ZM72.5184 74.55C74.3517 74.55 75.96 74.9083 77.3434 75.625C78.7434 76.3417 79.8184 77.3667 80.5684 78.7C81.335 80.0167 81.7184 81.55 81.7184 83.3C81.7184 85.05 81.335 86.5833 80.5684 87.9C79.8184 89.2 78.7434 90.2083 77.3434 90.925C75.96 91.6417 74.3517 92 72.5184 92H66.4184V74.55H72.5184ZM72.3934 89.025C74.2267 89.025 75.6434 88.525 76.6434 87.525C77.6434 86.525 78.1434 85.1167 78.1434 83.3C78.1434 81.4833 77.6434 80.0667 76.6434 79.05C75.6434 78.0167 74.2267 77.5 72.3934 77.5H69.9184V89.025H72.3934ZM99.2953 92L95.4453 85.2H93.7953V92H90.2953V74.55H96.8453C98.1953 74.55 99.3453 74.7917 100.295 75.275C101.245 75.7417 101.954 76.3833 102.42 77.2C102.904 78 103.145 78.9 103.145 79.9C103.145 81.05 102.812 82.0917 102.145 83.025C101.479 83.9417 100.487 84.575 99.1703 84.925L103.345 92H99.2953ZM93.7953 82.575H96.7203C97.6703 82.575 98.3786 82.35 98.8453 81.9C99.312 81.4333 99.5453 80.7917 99.5453 79.975C99.5453 79.175 99.312 78.5583 98.8453 78.125C98.3786 77.675 97.6703 77.45 96.7203 77.45H93.7953V82.575ZM119.186 84.775C119.186 85.275 119.153 85.725 119.086 86.125H108.961C109.044 87.125 109.394 87.9083 110.011 88.475C110.628 89.0417 111.386 89.325 112.286 89.325C113.586 89.325 114.511 88.7667 115.061 87.65H118.836C118.436 88.9833 117.669 90.0833 116.536 90.95C115.403 91.8 114.011 92.225 112.361 92.225C111.028 92.225 109.828 91.9333 108.761 91.35C107.711 90.75 106.886 89.9083 106.286 88.825C105.703 87.7417 105.411 86.4917 105.411 85.075C105.411 83.6417 105.703 82.3833 106.286 81.3C106.869 80.2167 107.686 79.3833 108.736 78.8C109.786 78.2167 110.994 77.925 112.361 77.925C113.678 77.925 114.853 78.2083 115.886 78.775C116.936 79.3417 117.744 80.15 118.311 81.2C118.894 82.2333 119.186 83.425 119.186 84.775ZM115.561 83.775C115.544 82.875 115.219 82.1583 114.586 81.625C113.953 81.075 113.178 80.8 112.261 80.8C111.394 80.8 110.661 81.0667 110.061 81.6C109.478 82.1167 109.119 82.8417 108.986 83.775H115.561ZM129.416 77.95C131.066 77.95 132.399 78.475 133.416 79.525C134.432 80.5583 134.941 82.0083 134.941 83.875V92H131.441V84.35C131.441 83.25 131.166 82.4083 130.616 81.825C130.066 81.225 129.316 80.925 128.366 80.925C127.399 80.925 126.632 81.225 126.066 81.825C125.516 82.4083 125.241 83.25 125.241 84.35V92H121.741V78.15H125.241V79.875C125.707 79.275 126.299 78.8083 127.016 78.475C127.749 78.125 128.549 77.95 129.416 77.95ZM142.344 81.025V87.725C142.344 88.1917 142.452 88.5333 142.669 88.75C142.902 88.95 143.286 89.05 143.819 89.05H145.444V92H143.244C140.294 92 138.819 90.5667 138.819 87.7V81.025H137.169V78.15H138.819V74.725H142.344V78.15H145.444V81.025H142.344ZM147.061 85.025C147.061 83.625 147.336 82.3833 147.886 81.3C148.453 80.2167 149.211 79.3833 150.161 78.8C151.128 78.2167 152.203 77.925 153.386 77.925C154.42 77.925 155.32 78.1333 156.086 78.55C156.87 78.9667 157.495 79.4917 157.961 80.125V78.15H161.486V92H157.961V89.975C157.511 90.625 156.886 91.1667 156.086 91.6C155.303 92.0167 154.395 92.225 153.361 92.225C152.195 92.225 151.128 91.925 150.161 91.325C149.211 90.725 148.453 89.8833 147.886 88.8C147.336 87.7 147.061 86.4417 147.061 85.025ZM157.961 85.075C157.961 84.225 157.795 83.5 157.461 82.9C157.128 82.2833 156.678 81.8167 156.111 81.5C155.545 81.1667 154.936 81 154.286 81C153.636 81 153.036 81.1583 152.486 81.475C151.936 81.7917 151.486 82.2583 151.136 82.875C150.803 83.475 150.636 84.1917 150.636 85.025C150.636 85.8583 150.803 86.5917 151.136 87.225C151.486 87.8417 151.936 88.3167 152.486 88.65C153.053 88.9833 153.653 89.15 154.286 89.15C154.936 89.15 155.545 88.9917 156.111 88.675C156.678 88.3417 157.128 87.875 157.461 87.275C157.795 86.6583 157.961 85.925 157.961 85.075ZM168.405 73.5V92H164.905V73.5H168.405ZM183.845 92.175C182.628 92.175 181.528 91.9667 180.545 91.55C179.578 91.1333 178.811 90.5333 178.245 89.75C177.678 88.9667 177.386 88.0417 177.37 86.975H181.12C181.17 87.6917 181.42 88.2583 181.87 88.675C182.336 89.0917 182.97 89.3 183.77 89.3C184.586 89.3 185.228 89.1083 185.695 88.725C186.161 88.325 186.395 87.8083 186.395 87.175C186.395 86.6583 186.236 86.2333 185.92 85.9C185.603 85.5667 185.203 85.3083 184.72 85.125C184.253 84.925 183.603 84.7083 182.77 84.475C181.636 84.1417 180.711 83.8167 179.995 83.5C179.295 83.1667 178.686 82.675 178.17 82.025C177.67 81.3583 177.42 80.475 177.42 79.375C177.42 78.3417 177.678 77.4417 178.195 76.675C178.711 75.9083 179.436 75.325 180.37 74.925C181.303 74.5083 182.37 74.3 183.57 74.3C185.37 74.3 186.828 74.7417 187.945 75.625C189.078 76.4917 189.703 77.7083 189.82 79.275H185.97C185.936 78.675 185.678 78.1833 185.195 77.8C184.728 77.4 184.103 77.2 183.32 77.2C182.636 77.2 182.086 77.375 181.67 77.725C181.27 78.075 181.07 78.5833 181.07 79.25C181.07 79.7167 181.22 80.1083 181.52 80.425C181.836 80.725 182.22 80.975 182.67 81.175C183.136 81.3583 183.786 81.575 184.62 81.825C185.753 82.1583 186.678 82.4917 187.395 82.825C188.111 83.1583 188.728 83.6583 189.245 84.325C189.761 84.9917 190.02 85.8667 190.02 86.95C190.02 87.8833 189.778 88.75 189.295 89.55C188.811 90.35 188.103 90.9917 187.17 91.475C186.236 91.9417 185.128 92.175 183.845 92.175ZM197.129 81.025V87.725C197.129 88.1917 197.237 88.5333 197.454 88.75C197.687 88.95 198.071 89.05 198.604 89.05H200.229V92H198.029C195.079 92 193.604 90.5667 193.604 87.7V81.025H191.954V78.15H193.604V74.725H197.129V78.15H200.229V81.025H197.129ZM208.896 92.225C207.563 92.225 206.363 91.9333 205.296 91.35C204.23 90.75 203.388 89.9083 202.771 88.825C202.171 87.7417 201.871 86.4917 201.871 85.075C201.871 83.6583 202.18 82.4083 202.796 81.325C203.43 80.2417 204.288 79.4083 205.371 78.825C206.455 78.225 207.663 77.925 208.996 77.925C210.33 77.925 211.538 78.225 212.621 78.825C213.705 79.4083 214.555 80.2417 215.171 81.325C215.805 82.4083 216.121 83.6583 216.121 85.075C216.121 86.4917 215.796 87.7417 215.146 88.825C214.513 89.9083 213.646 90.75 212.546 91.35C211.463 91.9333 210.246 92.225 208.896 92.225ZM208.896 89.175C209.53 89.175 210.121 89.025 210.671 88.725C211.238 88.4083 211.688 87.9417 212.021 87.325C212.355 86.7083 212.521 85.9583 212.521 85.075C212.521 83.7583 212.171 82.75 211.471 82.05C210.788 81.3333 209.946 80.975 208.946 80.975C207.946 80.975 207.105 81.3333 206.421 82.05C205.755 82.75 205.421 83.7583 205.421 85.075C205.421 86.3917 205.746 87.4083 206.396 88.125C207.063 88.825 207.896 89.175 208.896 89.175ZM222.189 80.3C222.639 79.5667 223.222 78.9917 223.939 78.575C224.672 78.1583 225.506 77.95 226.439 77.95V81.625H225.514C224.414 81.625 223.581 81.8833 223.014 82.4C222.464 82.9167 222.189 83.8167 222.189 85.1V92H218.689V78.15H222.189V80.3ZM241.671 84.775C241.671 85.275 241.638 85.725 241.571 86.125H231.446C231.53 87.125 231.88 87.9083 232.496 88.475C233.113 89.0417 233.871 89.325 234.771 89.325C236.071 89.325 236.996 88.7667 237.546 87.65H241.321C240.921 88.9833 240.155 90.0833 239.021 90.95C237.888 91.8 236.496 92.225 234.846 92.225C233.513 92.225 232.313 91.9333 231.246 91.35C230.196 90.75 229.371 89.9083 228.771 88.825C228.188 87.7417 227.896 86.4917 227.896 85.075C227.896 83.6417 228.188 82.3833 228.771 81.3C229.355 80.2167 230.171 79.3833 231.221 78.8C232.271 78.2167 233.48 77.925 234.846 77.925C236.163 77.925 237.338 78.2083 238.371 78.775C239.421 79.3417 240.23 80.15 240.796 81.2C241.38 82.2333 241.671 83.425 241.671 84.775ZM238.046 83.775C238.03 82.875 237.705 82.1583 237.071 81.625C236.438 81.075 235.663 80.8 234.746 80.8C233.88 80.8 233.146 81.0667 232.546 81.6C231.963 82.1167 231.605 82.8417 231.471 83.775H238.046Z" fill="black"/>
</g>
<defs>
<clipPath id="clip0_47_388">
<rect width="280" height="167" rx="18" fill="white"/>
</clipPath>
</defs>
</svg>
