<svg width="54" height="27" viewBox="0 0 54 27" fill="none" xmlns="http://www.w3.org/2000/svg">
<rect x="1" y="1" width="52" height="25" stroke="white" stroke-width="2"/>
<path d="M11.615 15.345V13.065L19.785 8.581V10.899L13.819 14.129V14.281L19.785 17.511V19.829L11.615 15.345ZM30.9306 6.738V16.371C30.9306 16.9663 30.8292 17.5047 30.6266 17.986C30.4239 18.4547 30.1326 18.8537 29.7526 19.183C29.3852 19.5123 28.9356 19.772 28.4036 19.962C27.8842 20.1393 27.3016 20.228 26.6556 20.228C25.4016 20.228 24.4136 19.9113 23.6916 19.278C22.9822 18.6447 22.5262 17.8023 22.3236 16.751L24.6606 16.257C24.7746 16.8143 24.9772 17.2767 25.2686 17.644C25.5726 17.9987 26.0349 18.176 26.6556 18.176C27.2256 18.176 27.6626 18.0113 27.9666 17.682C28.2706 17.34 28.4226 16.808 28.4226 16.086V8.79H23.9386V6.738H30.9306ZM34.4002 17.511L40.3662 14.281V14.129L34.4002 10.899V8.581L42.5702 13.065V15.345L34.4002 19.829V17.511Z" fill="white"/>
</svg>
