<svg width="30" height="30" viewBox="0 0 30 30" fill="none" xmlns="http://www.w3.org/2000/svg">
<path d="M0.727569 0.0998532C-0.233675 0.604993 -0.245398 1.86197 0.709985 2.35536C0.92099 2.46696 1.2668 2.46696 14.9821 2.46696C28.5392 2.46696 29.0432 2.46109 29.2718 2.35536C30.2331 1.90896 30.2448 0.604993 29.2894 0.111601C29.0784 0 28.7326 0 14.988 0C2.27494 0.00587372 0.885823 0.0117474 0.727569 0.0998532Z" fill="white"/>
<path d="M0.874257 13.8267C0.522582 13.9501 0.288132 14.1557 0.141601 14.4728C-0.163184 15.1307 0.0829886 15.8297 0.727726 16.1292L1.02665 16.2702H28.9848L29.2837 16.1292C29.946 15.8238 30.1863 15.1072 29.8464 14.4435C29.6764 14.1087 29.4361 13.9031 29.0786 13.8032C28.9379 13.768 24.1082 13.7445 14.9764 13.7445C3.77557 13.7504 1.04423 13.7621 0.874257 13.8267Z" fill="white"/>
<path d="M0.726279 27.6446C0.116709 27.9207 -0.170492 28.6667 0.104987 29.2658C0.21635 29.5184 0.562164 29.8532 0.796614 29.9471C0.990035 30.0176 29.0068 30.0176 29.2002 29.9471C29.4347 29.8532 29.7805 29.5184 29.8918 29.2658C30.1673 28.6667 29.8801 27.9207 29.2705 27.6446C29.0478 27.5389 28.45 27.533 14.9984 27.533C1.54685 27.533 0.949006 27.5389 0.726279 27.6446Z" fill="white"/>
</svg>
