<svg width="280" height="167" viewBox="0 0 280 167" fill="none" xmlns="http://www.w3.org/2000/svg">
<rect width="280" height="167" rx="18" fill="#D9D9D9"/>
<path d="M31.45 79.95C31.45 80.8833 31.225 81.7583 30.775 82.575C30.3417 83.3917 29.65 84.05 28.7 84.55C27.7667 85.05 26.5833 85.3 25.15 85.3H22.225V92H18.725V74.55H25.15C26.5 74.55 27.65 74.7833 28.6 75.25C29.55 75.7167 30.2583 76.3583 30.725 77.175C31.2083 77.9917 31.45 78.9167 31.45 79.95ZM25 82.475C25.9667 82.475 26.6833 82.2583 27.15 81.825C27.6167 81.375 27.85 80.75 27.85 79.95C27.85 78.25 26.9 77.4 25 77.4H22.225V82.475H25ZM37.435 73.5V92H33.935V73.5H37.435ZM39.993 85.025C39.993 83.625 40.268 82.3833 40.818 81.3C41.3846 80.2167 42.143 79.3833 43.093 78.8C44.0596 78.2167 45.1346 77.925 46.318 77.925C47.3513 77.925 48.2513 78.1333 49.018 78.55C49.8013 78.9667 50.4263 79.4917 50.893 80.125V78.15H54.418V92H50.893V89.975C50.443 90.625 49.818 91.1667 49.018 91.6C48.2346 92.0167 47.3263 92.225 46.293 92.225C45.1263 92.225 44.0596 91.925 43.093 91.325C42.143 90.725 41.3846 89.8833 40.818 88.8C40.268 87.7 39.993 86.4417 39.993 85.025ZM50.893 85.075C50.893 84.225 50.7263 83.5 50.393 82.9C50.0596 82.2833 49.6096 81.8167 49.043 81.5C48.4763 81.1667 47.868 81 47.218 81C46.568 81 45.968 81.1583 45.418 81.475C44.868 81.7917 44.418 82.2583 44.068 82.875C43.7346 83.475 43.568 84.1917 43.568 85.025C43.568 85.8583 43.7346 86.5917 44.068 87.225C44.418 87.8417 44.868 88.3167 45.418 88.65C45.9846 88.9833 46.5846 89.15 47.218 89.15C47.868 89.15 48.4763 88.9917 49.043 88.675C49.6096 88.3417 50.0596 87.875 50.393 87.275C50.7263 86.6583 50.893 85.925 50.893 85.075ZM56.9363 85.075C56.9363 83.6417 57.228 82.3917 57.8113 81.325C58.3947 80.2417 59.203 79.4083 60.2363 78.825C61.2697 78.225 62.453 77.925 63.7863 77.925C65.503 77.925 66.9197 78.3583 68.0363 79.225C69.1697 80.075 69.928 81.275 70.3113 82.825H66.5363C66.3363 82.225 65.9947 81.7583 65.5113 81.425C65.0447 81.075 64.4613 80.9 63.7613 80.9C62.7613 80.9 61.9697 81.2667 61.3863 82C60.803 82.7167 60.5113 83.7417 60.5113 85.075C60.5113 86.3917 60.803 87.4167 61.3863 88.15C61.9697 88.8667 62.7613 89.225 63.7613 89.225C65.178 89.225 66.103 88.5917 66.5363 87.325H70.3113C69.928 88.825 69.1697 90.0167 68.0363 90.9C66.903 91.7833 65.4863 92.225 63.7863 92.225C62.453 92.225 61.2697 91.9333 60.2363 91.35C59.203 90.75 58.3947 89.9167 57.8113 88.85C57.228 87.7667 56.9363 86.5083 56.9363 85.075ZM85.7504 84.775C85.7504 85.275 85.7171 85.725 85.6504 86.125H75.5254C75.6087 87.125 75.9587 87.9083 76.5754 88.475C77.1921 89.0417 77.9504 89.325 78.8504 89.325C80.1504 89.325 81.0754 88.7667 81.6254 87.65H85.4004C85.0004 88.9833 84.2337 90.0833 83.1004 90.95C81.9671 91.8 80.5754 92.225 78.9254 92.225C77.5921 92.225 76.3921 91.9333 75.3254 91.35C74.2754 90.75 73.4504 89.9083 72.8504 88.825C72.2671 87.7417 71.9754 86.4917 71.9754 85.075C71.9754 83.6417 72.2671 82.3833 72.8504 81.3C73.4337 80.2167 74.2504 79.3833 75.3004 78.8C76.3504 78.2167 77.5587 77.925 78.9254 77.925C80.2421 77.925 81.4171 78.2083 82.4504 78.775C83.5004 79.3417 84.3087 80.15 84.8754 81.2C85.4587 82.2333 85.7504 83.425 85.7504 84.775ZM82.1254 83.775C82.1087 82.875 81.7837 82.1583 81.1504 81.625C80.5171 81.075 79.7421 80.8 78.8254 80.8C77.9587 80.8 77.2254 81.0667 76.6254 81.6C76.0421 82.1167 75.6837 82.8417 75.5504 83.775H82.1254ZM96.1051 77.95C97.1551 77.95 98.0884 78.1833 98.9051 78.65C99.7217 79.1 100.355 79.775 100.805 80.675C101.272 81.5583 101.505 82.625 101.505 83.875V92H98.0051V84.35C98.0051 83.25 97.7301 82.4083 97.1801 81.825C96.6301 81.225 95.8801 80.925 94.9301 80.925C93.9634 80.925 93.1967 81.225 92.6301 81.825C92.0801 82.4083 91.8051 83.25 91.8051 84.35V92H88.3051V73.5H91.8051V79.875C92.2551 79.275 92.8551 78.8083 93.6051 78.475C94.3551 78.125 95.1884 77.95 96.1051 77.95ZM110.983 92.225C109.65 92.225 108.45 91.9333 107.383 91.35C106.317 90.75 105.475 89.9083 104.858 88.825C104.258 87.7417 103.958 86.4917 103.958 85.075C103.958 83.6583 104.267 82.4083 104.883 81.325C105.517 80.2417 106.375 79.4083 107.458 78.825C108.542 78.225 109.75 77.925 111.083 77.925C112.417 77.925 113.625 78.225 114.708 78.825C115.792 79.4083 116.642 80.2417 117.258 81.325C117.892 82.4083 118.208 83.6583 118.208 85.075C118.208 86.4917 117.883 87.7417 117.233 88.825C116.6 89.9083 115.733 90.75 114.633 91.35C113.55 91.9333 112.333 92.225 110.983 92.225ZM110.983 89.175C111.617 89.175 112.208 89.025 112.758 88.725C113.325 88.4083 113.775 87.9417 114.108 87.325C114.442 86.7083 114.608 85.9583 114.608 85.075C114.608 83.7583 114.258 82.75 113.558 82.05C112.875 81.3333 112.033 80.975 111.033 80.975C110.033 80.975 109.192 81.3333 108.508 82.05C107.842 82.75 107.508 83.7583 107.508 85.075C107.508 86.3917 107.833 87.4083 108.483 88.125C109.15 88.825 109.983 89.175 110.983 89.175ZM124.276 73.5V92H120.776V73.5H124.276ZM126.834 85.025C126.834 83.625 127.109 82.3833 127.659 81.3C128.225 80.2167 128.992 79.3833 129.959 78.8C130.925 78.2167 132 77.925 133.184 77.925C134.084 77.925 134.942 78.125 135.759 78.525C136.575 78.9083 137.225 79.425 137.709 80.075V73.5H141.259V92H137.709V89.95C137.275 90.6333 136.667 91.1833 135.884 91.6C135.1 92.0167 134.192 92.225 133.159 92.225C131.992 92.225 130.925 91.925 129.959 91.325C128.992 90.725 128.225 89.8833 127.659 88.8C127.109 87.7 126.834 86.4417 126.834 85.025ZM137.734 85.075C137.734 84.225 137.567 83.5 137.234 82.9C136.9 82.2833 136.45 81.8167 135.884 81.5C135.317 81.1667 134.709 81 134.059 81C133.409 81 132.809 81.1583 132.259 81.475C131.709 81.7917 131.259 82.2583 130.909 82.875C130.575 83.475 130.409 84.1917 130.409 85.025C130.409 85.8583 130.575 86.5917 130.909 87.225C131.259 87.8417 131.709 88.3167 132.259 88.65C132.825 88.9833 133.425 89.15 134.059 89.15C134.709 89.15 135.317 88.9917 135.884 88.675C136.45 88.3417 136.9 87.875 137.234 87.275C137.567 86.6583 137.734 85.925 137.734 85.075ZM157.552 84.775C157.552 85.275 157.519 85.725 157.452 86.125H147.327C147.41 87.125 147.76 87.9083 148.377 88.475C148.994 89.0417 149.752 89.325 150.652 89.325C151.952 89.325 152.877 88.7667 153.427 87.65H157.202C156.802 88.9833 156.035 90.0833 154.902 90.95C153.769 91.8 152.377 92.225 150.727 92.225C149.394 92.225 148.194 91.9333 147.127 91.35C146.077 90.75 145.252 89.9083 144.652 88.825C144.069 87.7417 143.777 86.4917 143.777 85.075C143.777 83.6417 144.069 82.3833 144.652 81.3C145.235 80.2167 146.052 79.3833 147.102 78.8C148.152 78.2167 149.36 77.925 150.727 77.925C152.044 77.925 153.219 78.2083 154.252 78.775C155.302 79.3417 156.11 80.15 156.677 81.2C157.26 82.2333 157.552 83.425 157.552 84.775ZM153.927 83.775C153.91 82.875 153.585 82.1583 152.952 81.625C152.319 81.075 151.544 80.8 150.627 80.8C149.76 80.8 149.027 81.0667 148.427 81.6C147.844 82.1167 147.485 82.8417 147.352 83.775H153.927ZM163.607 80.3C164.057 79.5667 164.64 78.9917 165.357 78.575C166.09 78.1583 166.924 77.95 167.857 77.95V81.625H166.932C165.832 81.625 164.999 81.8833 164.432 82.4C163.882 82.9167 163.607 83.8167 163.607 85.1V92H160.107V78.15H163.607V80.3ZM188.896 79.95C188.896 80.8833 188.671 81.7583 188.221 82.575C187.788 83.3917 187.096 84.05 186.146 84.55C185.213 85.05 184.03 85.3 182.596 85.3H179.671V92H176.171V74.55H182.596C183.946 74.55 185.096 74.7833 186.046 75.25C186.996 75.7167 187.705 76.3583 188.171 77.175C188.655 77.9917 188.896 78.9167 188.896 79.95ZM182.446 82.475C183.413 82.475 184.13 82.2583 184.596 81.825C185.063 81.375 185.296 80.75 185.296 79.95C185.296 78.25 184.346 77.4 182.446 77.4H179.671V82.475H182.446ZM194.881 80.3C195.331 79.5667 195.915 78.9917 196.631 78.575C197.365 78.1583 198.198 77.95 199.131 77.95V81.625H198.206C197.106 81.625 196.273 81.8833 195.706 82.4C195.156 82.9167 194.881 83.8167 194.881 85.1V92H191.381V78.15H194.881V80.3ZM207.639 92.225C206.305 92.225 205.105 91.9333 204.039 91.35C202.972 90.75 202.13 89.9083 201.514 88.825C200.914 87.7417 200.614 86.4917 200.614 85.075C200.614 83.6583 200.922 82.4083 201.539 81.325C202.172 80.2417 203.03 79.4083 204.114 78.825C205.197 78.225 206.405 77.925 207.739 77.925C209.072 77.925 210.28 78.225 211.364 78.825C212.447 79.4083 213.297 80.2417 213.914 81.325C214.547 82.4083 214.864 83.6583 214.864 85.075C214.864 86.4917 214.539 87.7417 213.889 88.825C213.255 89.9083 212.389 90.75 211.289 91.35C210.205 91.9333 208.989 92.225 207.639 92.225ZM207.639 89.175C208.272 89.175 208.864 89.025 209.414 88.725C209.98 88.4083 210.43 87.9417 210.764 87.325C211.097 86.7083 211.264 85.9583 211.264 85.075C211.264 83.7583 210.914 82.75 210.214 82.05C209.53 81.3333 208.689 80.975 207.689 80.975C206.689 80.975 205.847 81.3333 205.164 82.05C204.497 82.75 204.164 83.7583 204.164 85.075C204.164 86.3917 204.489 87.4083 205.139 88.125C205.805 88.825 206.639 89.175 207.639 89.175ZM219.206 76.5C218.573 76.5 218.048 76.3083 217.631 75.925C217.231 75.525 217.031 75.0333 217.031 74.45C217.031 73.8667 217.231 73.3833 217.631 73C218.048 72.6 218.573 72.4 219.206 72.4C219.823 72.4 220.331 72.6 220.731 73C221.131 73.3833 221.331 73.8667 221.331 74.45C221.331 75.0333 221.131 75.525 220.731 75.925C220.331 76.3083 219.823 76.5 219.206 76.5ZM220.931 94.275C220.931 95.8083 220.548 96.9083 219.781 97.575C219.031 98.2583 217.948 98.6 216.531 98.6H214.981V95.625H215.981C216.514 95.625 216.889 95.5167 217.106 95.3C217.323 95.1 217.431 94.7667 217.431 94.3V78.15H220.931V94.275ZM237.264 84.775C237.264 85.275 237.231 85.725 237.164 86.125H227.039C227.122 87.125 227.472 87.9083 228.089 88.475C228.706 89.0417 229.464 89.325 230.364 89.325C231.664 89.325 232.589 88.7667 233.139 87.65H236.914C236.514 88.9833 235.747 90.0833 234.614 90.95C233.481 91.8 232.089 92.225 230.439 92.225C229.106 92.225 227.906 91.9333 226.839 91.35C225.789 90.75 224.964 89.9083 224.364 88.825C223.781 87.7417 223.489 86.4917 223.489 85.075C223.489 83.6417 223.781 82.3833 224.364 81.3C224.947 80.2167 225.764 79.3833 226.814 78.8C227.864 78.2167 229.072 77.925 230.439 77.925C231.756 77.925 232.931 78.2083 233.964 78.775C235.014 79.3417 235.822 80.15 236.389 81.2C236.972 82.2333 237.264 83.425 237.264 84.775ZM233.639 83.775C233.622 82.875 233.297 82.1583 232.664 81.625C232.031 81.075 231.256 80.8 230.339 80.8C229.472 80.8 228.739 81.0667 228.139 81.6C227.556 82.1167 227.197 82.8417 227.064 83.775H233.639ZM238.919 85.075C238.919 83.6417 239.21 82.3917 239.794 81.325C240.377 80.2417 241.185 79.4083 242.219 78.825C243.252 78.225 244.435 77.925 245.769 77.925C247.485 77.925 248.902 78.3583 250.019 79.225C251.152 80.075 251.91 81.275 252.294 82.825H248.519C248.319 82.225 247.977 81.7583 247.494 81.425C247.027 81.075 246.444 80.9 245.744 80.9C244.744 80.9 243.952 81.2667 243.369 82C242.785 82.7167 242.494 83.7417 242.494 85.075C242.494 86.3917 242.785 87.4167 243.369 88.15C243.952 88.8667 244.744 89.225 245.744 89.225C247.16 89.225 248.085 88.5917 248.519 87.325H252.294C251.91 88.825 251.152 90.0167 250.019 90.9C248.885 91.7833 247.469 92.225 245.769 92.225C244.435 92.225 243.252 91.9333 242.219 91.35C241.185 90.75 240.377 89.9167 239.794 88.85C239.21 87.7667 238.919 86.5083 238.919 85.075ZM258.933 81.025V87.725C258.933 88.1917 259.041 88.5333 259.258 88.75C259.491 88.95 259.874 89.05 260.408 89.05H262.033V92H259.833C256.883 92 255.408 90.5667 255.408 87.7V81.025H253.758V78.15H255.408V74.725H258.933V78.15H262.033V81.025H258.933Z" fill="black"/>
</svg>
